<?xml version="1.0" encoding="UTF-8" standalone="no"?>
<!DOCTYPE svg PUBLIC "-//W3C//DTD SVG 1.1//EN"
 "http://www.w3.org/Graphics/SVG/1.1/DTD/svg11.dtd">
<!-- Generated by graphviz version 5.0.0 (20220707.1540)
 -->
<!-- Title: dependencies Pages: 1 -->
<svg width="2262pt" height="247pt"
 viewBox="0.00 0.00 2262.00 246.80" xmlns="http://www.w3.org/2000/svg" xmlns:xlink="http://www.w3.org/1999/xlink">
<g id="graph0" class="graph" transform="scale(1 1) rotate(0) translate(4 242.8)">
<title>dependencies</title>
<polygon fill="white" stroke="transparent" points="-4,4 -4,-242.8 2258,-242.8 2258,4 -4,4"/>
<text text-anchor="middle" x="1127" y="-8.2" font-family="sans-serif" font-size="14.00">dependencies</text>
<g id="clust1" class="cluster">
<title>cluster_AppModule</title>
<polygon fill="none" stroke="black" stroke-dasharray="1,5" points="8,-32.8 8,-230.8 2246,-230.8 2246,-32.8 8,-32.8"/>
</g>
<g id="clust16" class="cluster">
<title>cluster_AppModule_imports</title>
<polygon fill="none" stroke="black" points="2094,-40.8 2094,-92.8 2238,-92.8 2238,-40.8 2094,-40.8"/>
</g>
<g id="clust18" class="cluster">
<title>cluster_AppModule_bootstrap</title>
<polygon fill="none" stroke="black" points="1102,-170.8 1102,-222.8 1226,-222.8 1226,-170.8 1102,-170.8"/>
</g>
<g id="clust2" class="cluster">
<title>cluster_AppModule_declarations</title>
<polygon fill="none" stroke="black" points="16,-40.8 16,-92.8 2086,-92.8 2086,-40.8 16,-40.8"/>
</g>
<!-- AppComponent -->
<g id="node1" class="node">
<title>AppComponent</title>
<polygon fill="#ffffb3" stroke="black" points="2077.94,-84.8 1972.06,-84.8 1972.06,-48.8 2077.94,-48.8 2077.94,-84.8"/>
<text text-anchor="middle" x="2025" y="-62.6" font-family="Times,serif" font-size="14.00">AppComponent</text>
</g>
<!-- AppModule -->
<g id="node14" class="node">
<title>AppModule</title>
<polygon fill="#8dd3c7" stroke="black" points="1205.66,-149.8 1202.66,-153.8 1181.66,-153.8 1178.66,-149.8 1122.34,-149.8 1122.34,-113.8 1205.66,-113.8 1205.66,-149.8"/>
<text text-anchor="middle" x="1164" y="-127.6" font-family="Times,serif" font-size="14.00">AppModule</text>
</g>
<!-- AppComponent&#45;&gt;AppModule -->
<g id="edge1" class="edge">
<title>AppComponent&#45;&gt;AppModule</title>
<path fill="none" stroke="black" d="M2025,-84.84C2025,-106.46 2025,-139.8 2025,-139.8 2025,-139.8 1215.82,-139.8 1215.82,-139.8"/>
<polygon fill="black" stroke="black" points="1215.82,-136.3 1205.82,-139.8 1215.82,-143.3 1215.82,-136.3"/>
</g>
<!-- AuthButtonComponent -->
<g id="node2" class="node">
<title>AuthButtonComponent</title>
<polygon fill="#ffffb3" stroke="black" points="1954.95,-84.8 1807.05,-84.8 1807.05,-48.8 1954.95,-48.8 1954.95,-84.8"/>
<text text-anchor="middle" x="1881" y="-62.6" font-family="Times,serif" font-size="14.00">AuthButtonComponent</text>
</g>
<!-- AuthButtonComponent&#45;&gt;AppModule -->
<g id="edge2" class="edge">
<title>AuthButtonComponent&#45;&gt;AppModule</title>
<path fill="none" stroke="black" d="M1881,-85.02C1881,-105.17 1881,-134.8 1881,-134.8 1881,-134.8 1215.91,-134.8 1215.91,-134.8"/>
<polygon fill="black" stroke="black" points="1215.91,-131.3 1205.91,-134.8 1215.91,-138.3 1215.91,-131.3"/>
</g>
<!-- CartComponent -->
<g id="node3" class="node">
<title>CartComponent</title>
<polygon fill="#ffffb3" stroke="black" points="1789.94,-84.8 1684.06,-84.8 1684.06,-48.8 1789.94,-48.8 1789.94,-84.8"/>
<text text-anchor="middle" x="1737" y="-62.6" font-family="Times,serif" font-size="14.00">CartComponent</text>
</g>
<!-- CartComponent&#45;&gt;AppModule -->
<g id="edge3" class="edge">
<title>CartComponent&#45;&gt;AppModule</title>
<path fill="none" stroke="black" d="M1737,-85.02C1737,-103.63 1737,-129.8 1737,-129.8 1737,-129.8 1215.67,-129.8 1215.67,-129.8"/>
<polygon fill="black" stroke="black" points="1215.67,-126.3 1205.67,-129.8 1215.67,-133.3 1215.67,-126.3"/>
</g>
<!-- CheckoutComponent -->
<g id="node4" class="node">
<title>CheckoutComponent</title>
<polygon fill="#ffffb3" stroke="black" points="1666.49,-84.8 1531.51,-84.8 1531.51,-48.8 1666.49,-48.8 1666.49,-84.8"/>
<text text-anchor="middle" x="1599" y="-62.6" font-family="Times,serif" font-size="14.00">CheckoutComponent</text>
</g>
<!-- CheckoutComponent&#45;&gt;AppModule -->
<g id="edge4" class="edge">
<title>CheckoutComponent&#45;&gt;AppModule</title>
<path fill="none" stroke="black" d="M1599,-84.83C1599,-101.86 1599,-124.8 1599,-124.8 1599,-124.8 1215.71,-124.8 1215.71,-124.8"/>
<polygon fill="black" stroke="black" points="1215.71,-121.3 1205.71,-124.8 1215.71,-128.3 1215.71,-121.3"/>
</g>
<!-- CreateProductComponent -->
<g id="node5" class="node">
<title>CreateProductComponent</title>
<polygon fill="#ffffb3" stroke="black" points="1513.91,-84.8 1352.09,-84.8 1352.09,-48.8 1513.91,-48.8 1513.91,-84.8"/>
<text text-anchor="middle" x="1433" y="-62.6" font-family="Times,serif" font-size="14.00">CreateProductComponent</text>
</g>
<!-- CreateProductComponent&#45;&gt;AppModule -->
<g id="edge5" class="edge">
<title>CreateProductComponent&#45;&gt;AppModule</title>
<path fill="none" stroke="black" d="M1433,-85.04C1433,-100.37 1433,-119.8 1433,-119.8 1433,-119.8 1215.74,-119.8 1215.74,-119.8"/>
<polygon fill="black" stroke="black" points="1215.74,-116.3 1205.74,-119.8 1215.74,-123.3 1215.74,-116.3"/>
</g>
<!-- DisplayProductsComponent -->
<g id="node6" class="node">
<title>DisplayProductsComponent</title>
<polygon fill="#ffffb3" stroke="black" points="1333.88,-84.8 1160.12,-84.8 1160.12,-48.8 1333.88,-48.8 1333.88,-84.8"/>
<text text-anchor="middle" x="1247" y="-62.6" font-family="Times,serif" font-size="14.00">DisplayProductsComponent</text>
</g>
<!-- DisplayProductsComponent&#45;&gt;AppModule -->
<g id="edge6" class="edge">
<title>DisplayProductsComponent&#45;&gt;AppModule</title>
<path fill="none" stroke="black" d="M1182.94,-84.91C1182.94,-84.91 1182.94,-103.79 1182.94,-103.79"/>
<polygon fill="black" stroke="black" points="1179.44,-103.79 1182.94,-113.79 1186.44,-103.79 1179.44,-103.79"/>
</g>
<!-- NavbarComponent -->
<g id="node7" class="node">
<title>NavbarComponent</title>
<polygon fill="#ffffb3" stroke="black" points="1142.03,-84.8 1019.97,-84.8 1019.97,-48.8 1142.03,-48.8 1142.03,-84.8"/>
<text text-anchor="middle" x="1081" y="-62.6" font-family="Times,serif" font-size="14.00">NavbarComponent</text>
</g>
<!-- NavbarComponent&#45;&gt;AppModule -->
<g id="edge7" class="edge">
<title>NavbarComponent&#45;&gt;AppModule</title>
<path fill="none" stroke="black" d="M1132.22,-84.91C1132.22,-84.91 1132.22,-103.79 1132.22,-103.79"/>
<polygon fill="black" stroke="black" points="1128.72,-103.79 1132.22,-113.79 1135.72,-103.79 1128.72,-103.79"/>
</g>
<!-- ProductCardComponent -->
<g id="node8" class="node">
<title>ProductCardComponent</title>
<polygon fill="#ffffb3" stroke="black" points="1002.1,-84.8 849.9,-84.8 849.9,-48.8 1002.1,-48.8 1002.1,-84.8"/>
<text text-anchor="middle" x="926" y="-62.6" font-family="Times,serif" font-size="14.00">ProductCardComponent</text>
</g>
<!-- ProductCardComponent&#45;&gt;AppModule -->
<g id="edge8" class="edge">
<title>ProductCardComponent&#45;&gt;AppModule</title>
<path fill="none" stroke="black" d="M926,-85.04C926,-100.37 926,-119.8 926,-119.8 926,-119.8 1112.27,-119.8 1112.27,-119.8"/>
<polygon fill="black" stroke="black" points="1112.27,-123.3 1122.27,-119.8 1112.27,-116.3 1112.27,-123.3"/>
</g>
<!-- ProductDetailsComponent -->
<g id="node9" class="node">
<title>ProductDetailsComponent</title>
<polygon fill="#ffffb3" stroke="black" points="832.04,-84.8 667.96,-84.8 667.96,-48.8 832.04,-48.8 832.04,-84.8"/>
<text text-anchor="middle" x="750" y="-62.6" font-family="Times,serif" font-size="14.00">ProductDetailsComponent</text>
</g>
<!-- ProductDetailsComponent&#45;&gt;AppModule -->
<g id="edge9" class="edge">
<title>ProductDetailsComponent&#45;&gt;AppModule</title>
<path fill="none" stroke="black" d="M750,-84.83C750,-101.86 750,-124.8 750,-124.8 750,-124.8 1112.03,-124.8 1112.03,-124.8"/>
<polygon fill="black" stroke="black" points="1112.03,-128.3 1122.03,-124.8 1112.03,-121.3 1112.03,-128.3"/>
</g>
<!-- ReviewComponent -->
<g id="node10" class="node">
<title>ReviewComponent</title>
<polygon fill="#ffffb3" stroke="black" points="650.1,-84.8 525.9,-84.8 525.9,-48.8 650.1,-48.8 650.1,-84.8"/>
<text text-anchor="middle" x="588" y="-62.6" font-family="Times,serif" font-size="14.00">ReviewComponent</text>
</g>
<!-- ReviewComponent&#45;&gt;AppModule -->
<g id="edge10" class="edge">
<title>ReviewComponent&#45;&gt;AppModule</title>
<path fill="none" stroke="black" d="M588,-85.02C588,-103.63 588,-129.8 588,-129.8 588,-129.8 1112.11,-129.8 1112.11,-129.8"/>
<polygon fill="black" stroke="black" points="1112.11,-133.3 1122.11,-129.8 1112.11,-126.3 1112.11,-133.3"/>
</g>
<!-- ReviewSubmitComponent -->
<g id="node11" class="node">
<title>ReviewSubmitComponent</title>
<polygon fill="#ffffb3" stroke="black" points="508.05,-84.8 343.95,-84.8 343.95,-48.8 508.05,-48.8 508.05,-84.8"/>
<text text-anchor="middle" x="426" y="-62.6" font-family="Times,serif" font-size="14.00">ReviewSubmitComponent</text>
</g>
<!-- ReviewSubmitComponent&#45;&gt;AppModule -->
<g id="edge11" class="edge">
<title>ReviewSubmitComponent&#45;&gt;AppModule</title>
<path fill="none" stroke="black" d="M426,-85.02C426,-105.17 426,-134.8 426,-134.8 426,-134.8 1112.21,-134.8 1112.21,-134.8"/>
<polygon fill="black" stroke="black" points="1112.21,-138.3 1122.21,-134.8 1112.21,-131.3 1112.21,-138.3"/>
</g>
<!-- SearchbarComponent -->
<g id="node12" class="node">
<title>SearchbarComponent</title>
<polygon fill="#ffffb3" stroke="black" points="325.8,-84.8 188.2,-84.8 188.2,-48.8 325.8,-48.8 325.8,-84.8"/>
<text text-anchor="middle" x="257" y="-62.6" font-family="Times,serif" font-size="14.00">SearchbarComponent</text>
</g>
<!-- SearchbarComponent&#45;&gt;AppModule -->
<g id="edge12" class="edge">
<title>SearchbarComponent&#45;&gt;AppModule</title>
<path fill="none" stroke="black" d="M257,-84.84C257,-106.46 257,-139.8 257,-139.8 257,-139.8 1112.07,-139.8 1112.07,-139.8"/>
<polygon fill="black" stroke="black" points="1112.07,-143.3 1122.07,-139.8 1112.07,-136.3 1112.07,-143.3"/>
</g>
<!-- UserProfileComponent -->
<g id="node13" class="node">
<title>UserProfileComponent</title>
<polygon fill="#ffffb3" stroke="black" points="169.87,-84.8 24.13,-84.8 24.13,-48.8 169.87,-48.8 169.87,-84.8"/>
<text text-anchor="middle" x="97" y="-62.6" font-family="Times,serif" font-size="14.00">UserProfileComponent</text>
</g>
<!-- UserProfileComponent&#45;&gt;AppModule -->
<g id="edge13" class="edge">
<title>UserProfileComponent&#45;&gt;AppModule</title>
<path fill="none" stroke="black" d="M97,-84.89C97,-107.93 97,-144.8 97,-144.8 97,-144.8 1112.17,-144.8 1112.17,-144.8"/>
<polygon fill="black" stroke="black" points="1112.17,-148.3 1122.17,-144.8 1112.17,-141.3 1112.17,-148.3"/>
</g>
<!-- AppComponent  -->
<g id="node16" class="node">
<title>AppComponent </title>
<polygon fill="#80b1d3" stroke="black" points="1218.44,-214.8 1109.56,-214.8 1109.56,-178.8 1218.44,-178.8 1218.44,-214.8"/>
<text text-anchor="middle" x="1164" y="-192.6" font-family="Times,serif" font-size="14.00">AppComponent </text>
</g>
<!-- AppModule&#45;&gt;AppComponent  -->
<g id="edge15" class="edge">
<title>AppModule&#45;&gt;AppComponent </title>
<path fill="none" stroke="black" stroke-dasharray="1,5" d="M1164,-149.91C1164,-149.91 1164,-168.79 1164,-168.79"/>
<polygon fill="black" stroke="black" points="1160.5,-168.79 1164,-178.79 1167.5,-168.79 1160.5,-168.79"/>
</g>
<!-- AppRoutingModule -->
<g id="node15" class="node">
<title>AppRoutingModule</title>
<polygon fill="#8dd3c7" stroke="black" points="2230.28,-84.8 2227.28,-88.8 2206.28,-88.8 2203.28,-84.8 2101.72,-84.8 2101.72,-48.8 2230.28,-48.8 2230.28,-84.8"/>
<text text-anchor="middle" x="2166" y="-62.6" font-family="Times,serif" font-size="14.00">AppRoutingModule</text>
</g>
<!-- AppRoutingModule&#45;&gt;AppModule -->
<g id="edge14" class="edge">
<title>AppRoutingModule&#45;&gt;AppModule</title>
<path fill="none" stroke="black" d="M2166,-84.89C2166,-107.93 2166,-144.8 2166,-144.8 2166,-144.8 1215.78,-144.8 1215.78,-144.8"/>
<polygon fill="black" stroke="black" points="1215.78,-141.3 1205.78,-144.8 1215.78,-148.3 1215.78,-141.3"/>
</g>
</g>
</svg>
