<?xml version="1.0" encoding="UTF-8" standalone="no"?>
<!DOCTYPE svg PUBLIC "-//W3C//DTD SVG 1.1//EN"
 "http://www.w3.org/Graphics/SVG/1.1/DTD/svg11.dtd">
<!-- Generated by graphviz version 5.0.0 (20220707.1540)
 -->
<!-- Title: dependencies Pages: 1 -->
<svg width="2262pt" height="247pt"
 viewBox="0.00 0.00 2262.00 246.80" xmlns="http://www.w3.org/2000/svg" xmlns:xlink="http://www.w3.org/1999/xlink">
<g id="graph0" class="graph" transform="scale(1 1) rotate(0) translate(4 242.8)">
<title>dependencies</title>
<polygon fill="white" stroke="transparent" points="-4,4 -4,-242.8 2258,-242.8 2258,4 -4,4"/>
<text text-anchor="middle" x="1127" y="-8.2" font-family="sans-serif" font-size="14.00">dependencies</text>
<g id="clust1" class="cluster">
<title>cluster_AppModule</title>
<polygon fill="none" stroke="black" stroke-dasharray="1,5" points="8,-32.8 8,-230.8 2246,-230.8 2246,-32.8 8,-32.8"/>
</g>
<g id="clust2" class="cluster">
<title>cluster_AppModule_declarations</title>
<polygon fill="none" stroke="black" points="168,-40.8 168,-92.8 2238,-92.8 2238,-40.8 168,-40.8"/>
</g>
<g id="clust16" class="cluster">
<title>cluster_AppModule_imports</title>
<polygon fill="none" stroke="black" points="16,-40.8 16,-92.8 160,-92.8 160,-40.8 16,-40.8"/>
</g>
<g id="clust18" class="cluster">
<title>cluster_AppModule_bootstrap</title>
<polygon fill="none" stroke="black" points="1093,-170.8 1093,-222.8 1217,-222.8 1217,-170.8 1093,-170.8"/>
</g>
<!-- AppComponent -->
<g id="node1" class="node">
<title>AppComponent</title>
<polygon fill="#ffffb3" stroke="black" points="2229.94,-84.8 2124.06,-84.8 2124.06,-48.8 2229.94,-48.8 2229.94,-84.8"/>
<text text-anchor="middle" x="2177" y="-62.6" font-family="Times,serif" font-size="14.00">AppComponent</text>
</g>
<!-- AppModule -->
<g id="node14" class="node">
<title>AppModule</title>
<polygon fill="#8dd3c7" stroke="black" points="1196.66,-149.8 1193.66,-153.8 1172.66,-153.8 1169.66,-149.8 1113.34,-149.8 1113.34,-113.8 1196.66,-113.8 1196.66,-149.8"/>
<text text-anchor="middle" x="1155" y="-127.6" font-family="Times,serif" font-size="14.00">AppModule</text>
</g>
<!-- AppComponent&#45;&gt;AppModule -->
<g id="edge1" class="edge">
<title>AppComponent&#45;&gt;AppModule</title>
<path fill="none" stroke="black" d="M2177,-84.89C2177,-107.93 2177,-144.8 2177,-144.8 2177,-144.8 1206.97,-144.8 1206.97,-144.8"/>
<polygon fill="black" stroke="black" points="1206.97,-141.3 1196.97,-144.8 1206.97,-148.3 1206.97,-141.3"/>
</g>
<!-- AuthButtonComponent -->
<g id="node2" class="node">
<title>AuthButtonComponent</title>
<polygon fill="#ffffb3" stroke="black" points="2106.95,-84.8 1959.05,-84.8 1959.05,-48.8 2106.95,-48.8 2106.95,-84.8"/>
<text text-anchor="middle" x="2033" y="-62.6" font-family="Times,serif" font-size="14.00">AuthButtonComponent</text>
</g>
<!-- AuthButtonComponent&#45;&gt;AppModule -->
<g id="edge2" class="edge">
<title>AuthButtonComponent&#45;&gt;AppModule</title>
<path fill="none" stroke="black" d="M2033,-84.84C2033,-106.46 2033,-139.8 2033,-139.8 2033,-139.8 1206.76,-139.8 1206.76,-139.8"/>
<polygon fill="black" stroke="black" points="1206.76,-136.3 1196.76,-139.8 1206.76,-143.3 1206.76,-136.3"/>
</g>
<!-- CartComponent -->
<g id="node3" class="node">
<title>CartComponent</title>
<polygon fill="#ffffb3" stroke="black" points="1941.94,-84.8 1836.06,-84.8 1836.06,-48.8 1941.94,-48.8 1941.94,-84.8"/>
<text text-anchor="middle" x="1889" y="-62.6" font-family="Times,serif" font-size="14.00">CartComponent</text>
</g>
<!-- CartComponent&#45;&gt;AppModule -->
<g id="edge3" class="edge">
<title>CartComponent&#45;&gt;AppModule</title>
<path fill="none" stroke="black" d="M1889,-85.02C1889,-105.17 1889,-134.8 1889,-134.8 1889,-134.8 1206.83,-134.8 1206.83,-134.8"/>
<polygon fill="black" stroke="black" points="1206.83,-131.3 1196.83,-134.8 1206.83,-138.3 1206.83,-131.3"/>
</g>
<!-- CheckoutComponent -->
<g id="node4" class="node">
<title>CheckoutComponent</title>
<polygon fill="#ffffb3" stroke="black" points="1818.49,-84.8 1683.51,-84.8 1683.51,-48.8 1818.49,-48.8 1818.49,-84.8"/>
<text text-anchor="middle" x="1751" y="-62.6" font-family="Times,serif" font-size="14.00">CheckoutComponent</text>
</g>
<!-- CheckoutComponent&#45;&gt;AppModule -->
<g id="edge4" class="edge">
<title>CheckoutComponent&#45;&gt;AppModule</title>
<path fill="none" stroke="black" d="M1751,-85.02C1751,-103.63 1751,-129.8 1751,-129.8 1751,-129.8 1206.91,-129.8 1206.91,-129.8"/>
<polygon fill="black" stroke="black" points="1206.91,-126.3 1196.91,-129.8 1206.91,-133.3 1206.91,-126.3"/>
</g>
<!-- CreateProductComponent -->
<g id="node5" class="node">
<title>CreateProductComponent</title>
<polygon fill="#ffffb3" stroke="black" points="1665.91,-84.8 1504.09,-84.8 1504.09,-48.8 1665.91,-48.8 1665.91,-84.8"/>
<text text-anchor="middle" x="1585" y="-62.6" font-family="Times,serif" font-size="14.00">CreateProductComponent</text>
</g>
<!-- CreateProductComponent&#45;&gt;AppModule -->
<g id="edge5" class="edge">
<title>CreateProductComponent&#45;&gt;AppModule</title>
<path fill="none" stroke="black" d="M1585,-84.83C1585,-101.86 1585,-124.8 1585,-124.8 1585,-124.8 1207.01,-124.8 1207.01,-124.8"/>
<polygon fill="black" stroke="black" points="1207.01,-121.3 1197.01,-124.8 1207.01,-128.3 1207.01,-121.3"/>
</g>
<!-- DisplayProductsComponent -->
<g id="node6" class="node">
<title>DisplayProductsComponent</title>
<polygon fill="#ffffb3" stroke="black" points="1485.88,-84.8 1312.12,-84.8 1312.12,-48.8 1485.88,-48.8 1485.88,-84.8"/>
<text text-anchor="middle" x="1399" y="-62.6" font-family="Times,serif" font-size="14.00">DisplayProductsComponent</text>
</g>
<!-- DisplayProductsComponent&#45;&gt;AppModule -->
<g id="edge6" class="edge">
<title>DisplayProductsComponent&#45;&gt;AppModule</title>
<path fill="none" stroke="black" d="M1399,-85.04C1399,-100.37 1399,-119.8 1399,-119.8 1399,-119.8 1206.67,-119.8 1206.67,-119.8"/>
<polygon fill="black" stroke="black" points="1206.67,-116.3 1196.67,-119.8 1206.67,-123.3 1206.67,-116.3"/>
</g>
<!-- NavbarComponent -->
<g id="node7" class="node">
<title>NavbarComponent</title>
<polygon fill="#ffffb3" stroke="black" points="1294.03,-84.8 1171.97,-84.8 1171.97,-48.8 1294.03,-48.8 1294.03,-84.8"/>
<text text-anchor="middle" x="1233" y="-62.6" font-family="Times,serif" font-size="14.00">NavbarComponent</text>
</g>
<!-- NavbarComponent&#45;&gt;AppModule -->
<g id="edge7" class="edge">
<title>NavbarComponent&#45;&gt;AppModule</title>
<path fill="none" stroke="black" d="M1184.28,-84.91C1184.28,-84.91 1184.28,-103.79 1184.28,-103.79"/>
<polygon fill="black" stroke="black" points="1180.78,-103.79 1184.28,-113.79 1187.78,-103.79 1180.78,-103.79"/>
</g>
<!-- ProductCardComponent -->
<g id="node8" class="node">
<title>ProductCardComponent</title>
<polygon fill="#ffffb3" stroke="black" points="1154.1,-84.8 1001.9,-84.8 1001.9,-48.8 1154.1,-48.8 1154.1,-84.8"/>
<text text-anchor="middle" x="1078" y="-62.6" font-family="Times,serif" font-size="14.00">ProductCardComponent</text>
</g>
<!-- ProductCardComponent&#45;&gt;AppModule -->
<g id="edge8" class="edge">
<title>ProductCardComponent&#45;&gt;AppModule</title>
<path fill="none" stroke="black" d="M1133.61,-84.91C1133.61,-84.91 1133.61,-103.79 1133.61,-103.79"/>
<polygon fill="black" stroke="black" points="1130.11,-103.79 1133.61,-113.79 1137.11,-103.79 1130.11,-103.79"/>
</g>
<!-- ProductDetailsComponent -->
<g id="node9" class="node">
<title>ProductDetailsComponent</title>
<polygon fill="#ffffb3" stroke="black" points="984.04,-84.8 819.96,-84.8 819.96,-48.8 984.04,-48.8 984.04,-84.8"/>
<text text-anchor="middle" x="902" y="-62.6" font-family="Times,serif" font-size="14.00">ProductDetailsComponent</text>
</g>
<!-- ProductDetailsComponent&#45;&gt;AppModule -->
<g id="edge9" class="edge">
<title>ProductDetailsComponent&#45;&gt;AppModule</title>
<path fill="none" stroke="black" d="M902,-85.04C902,-100.37 902,-119.8 902,-119.8 902,-119.8 1103.22,-119.8 1103.22,-119.8"/>
<polygon fill="black" stroke="black" points="1103.22,-123.3 1113.22,-119.8 1103.22,-116.3 1103.22,-123.3"/>
</g>
<!-- ReviewComponent -->
<g id="node10" class="node">
<title>ReviewComponent</title>
<polygon fill="#ffffb3" stroke="black" points="802.1,-84.8 677.9,-84.8 677.9,-48.8 802.1,-48.8 802.1,-84.8"/>
<text text-anchor="middle" x="740" y="-62.6" font-family="Times,serif" font-size="14.00">ReviewComponent</text>
</g>
<!-- ReviewComponent&#45;&gt;AppModule -->
<g id="edge10" class="edge">
<title>ReviewComponent&#45;&gt;AppModule</title>
<path fill="none" stroke="black" d="M740,-84.83C740,-101.86 740,-124.8 740,-124.8 740,-124.8 1103.31,-124.8 1103.31,-124.8"/>
<polygon fill="black" stroke="black" points="1103.31,-128.3 1113.31,-124.8 1103.31,-121.3 1103.31,-128.3"/>
</g>
<!-- ReviewSubmitComponent -->
<g id="node11" class="node">
<title>ReviewSubmitComponent</title>
<polygon fill="#ffffb3" stroke="black" points="660.05,-84.8 495.95,-84.8 495.95,-48.8 660.05,-48.8 660.05,-84.8"/>
<text text-anchor="middle" x="578" y="-62.6" font-family="Times,serif" font-size="14.00">ReviewSubmitComponent</text>
</g>
<!-- ReviewSubmitComponent&#45;&gt;AppModule -->
<g id="edge11" class="edge">
<title>ReviewSubmitComponent&#45;&gt;AppModule</title>
<path fill="none" stroke="black" d="M578,-85.02C578,-103.63 578,-129.8 578,-129.8 578,-129.8 1103.04,-129.8 1103.04,-129.8"/>
<polygon fill="black" stroke="black" points="1103.04,-133.3 1113.04,-129.8 1103.04,-126.3 1103.04,-133.3"/>
</g>
<!-- SearchbarComponent -->
<g id="node12" class="node">
<title>SearchbarComponent</title>
<polygon fill="#ffffb3" stroke="black" points="477.8,-84.8 340.2,-84.8 340.2,-48.8 477.8,-48.8 477.8,-84.8"/>
<text text-anchor="middle" x="409" y="-62.6" font-family="Times,serif" font-size="14.00">SearchbarComponent</text>
</g>
<!-- SearchbarComponent&#45;&gt;AppModule -->
<g id="edge12" class="edge">
<title>SearchbarComponent&#45;&gt;AppModule</title>
<path fill="none" stroke="black" d="M409,-85.02C409,-105.17 409,-134.8 409,-134.8 409,-134.8 1103.29,-134.8 1103.29,-134.8"/>
<polygon fill="black" stroke="black" points="1103.29,-138.3 1113.29,-134.8 1103.29,-131.3 1103.29,-138.3"/>
</g>
<!-- UserProfileComponent -->
<g id="node13" class="node">
<title>UserProfileComponent</title>
<polygon fill="#ffffb3" stroke="black" points="321.87,-84.8 176.13,-84.8 176.13,-48.8 321.87,-48.8 321.87,-84.8"/>
<text text-anchor="middle" x="249" y="-62.6" font-family="Times,serif" font-size="14.00">UserProfileComponent</text>
</g>
<!-- UserProfileComponent&#45;&gt;AppModule -->
<g id="edge13" class="edge">
<title>UserProfileComponent&#45;&gt;AppModule</title>
<path fill="none" stroke="black" d="M249,-84.84C249,-106.46 249,-139.8 249,-139.8 249,-139.8 1103.12,-139.8 1103.12,-139.8"/>
<polygon fill="black" stroke="black" points="1103.12,-143.3 1113.12,-139.8 1103.12,-136.3 1103.12,-143.3"/>
</g>
<!-- AppComponent  -->
<g id="node16" class="node">
<title>AppComponent </title>
<polygon fill="#80b1d3" stroke="black" points="1209.44,-214.8 1100.56,-214.8 1100.56,-178.8 1209.44,-178.8 1209.44,-214.8"/>
<text text-anchor="middle" x="1155" y="-192.6" font-family="Times,serif" font-size="14.00">AppComponent </text>
</g>
<!-- AppModule&#45;&gt;AppComponent  -->
<g id="edge15" class="edge">
<title>AppModule&#45;&gt;AppComponent </title>
<path fill="none" stroke="black" stroke-dasharray="1,5" d="M1155,-149.91C1155,-149.91 1155,-168.79 1155,-168.79"/>
<polygon fill="black" stroke="black" points="1151.5,-168.79 1155,-178.79 1158.5,-168.79 1151.5,-168.79"/>
</g>
<!-- AppRoutingModule -->
<g id="node15" class="node">
<title>AppRoutingModule</title>
<polygon fill="#8dd3c7" stroke="black" points="152.28,-84.8 149.28,-88.8 128.28,-88.8 125.28,-84.8 23.72,-84.8 23.72,-48.8 152.28,-48.8 152.28,-84.8"/>
<text text-anchor="middle" x="88" y="-62.6" font-family="Times,serif" font-size="14.00">AppRoutingModule</text>
</g>
<!-- AppRoutingModule&#45;&gt;AppModule -->
<g id="edge14" class="edge">
<title>AppRoutingModule&#45;&gt;AppModule</title>
<path fill="none" stroke="black" d="M88,-84.89C88,-107.93 88,-144.8 88,-144.8 88,-144.8 1103.17,-144.8 1103.17,-144.8"/>
<polygon fill="black" stroke="black" points="1103.17,-148.3 1113.17,-144.8 1103.17,-141.3 1103.17,-148.3"/>
</g>
</g>
</svg>
